<?xml version="1.0" standalone="no"?>
<!DOCTYPE svg PUBLIC "-//W3C//DTD SVG 20010904//EN"
 "http://www.w3.org/TR/2001/REC-SVG-20010904/DTD/svg10.dtd">
<svg version="1.0" xmlns="http://www.w3.org/2000/svg"
 width="177.000000pt" height="157.000000pt" viewBox="0 0 177.000000 157.000000"
 preserveAspectRatio="xMidYMid meet">
<metadata>
Created by potrace 1.12, written by Peter Selinger 2001-2015
</metadata>
<g transform="translate(0.000000,157.000000) scale(0.100000,-0.100000)"
fill="#000000" stroke="none">
<path d="M276 1523 c-15 -55 -27 -138 -28 -205 -1 -65 2 -84 25 -128 21 -40
25 -56 17 -71 -14 -26 -48 -24 -92 6 l-36 24 -6 -26 c-4 -14 -5 -27 -2 -30 2
-3 -2 -23 -10 -45 -19 -53 -18 -198 1 -290 23 -105 54 -166 127 -244 61 -65
64 -70 51 -94 -7 -14 -13 -54 -13 -89 0 -60 1 -63 18 -49 45 40 101 58 179 58
104 0 124 -16 148 -120 16 -65 24 -81 64 -121 55 -55 110 -74 189 -65 122 14
173 68 212 223 16 66 61 88 175 88 79 0 96 -3 138 -27 47 -26 47 -26 47 -5 -1
12 -9 46 -19 76 l-19 54 59 55 c70 64 112 144 130 246 13 77 6 239 -11 244 -5
2 -10 30 -10 61 l0 58 -55 -5 c-97 -8 -128 35 -85 115 24 46 26 122 6 220 -23
110 -21 106 -86 100 -63 -5 -139 -39 -217 -98 l-52 -39 -136 11 c-99 8 -168 8
-250 0 l-113 -11 -60 40 c-67 45 -206 100 -252 100 -19 0 -30 -6 -34 -17z
m1155 -65 c20 -83 18 -192 -4 -216 -10 -11 -21 -40 -23 -63 -6 -45 -19 -79
-32 -79 -4 0 -15 13 -24 28 -15 26 -16 32 -2 73 22 63 36 157 28 192 l-6 29
-54 -53 c-60 -60 -68 -77 -25 -54 19 9 32 11 36 5 3 -6 2 -10 -3 -10 -5 0 -17
-12 -27 -26 l-17 -27 27 7 26 7 -28 -36 c-15 -19 -33 -35 -40 -35 -6 0 2 -14
17 -30 33 -36 63 -108 58 -141 -3 -21 -6 -18 -33 22 l-30 44 -6 -68 c-7 -78
-18 -96 -43 -68 -17 18 -18 18 -81 -24 -35 -24 -78 -48 -97 -55 -49 -17 -74
-55 -80 -121 -4 -53 -3 -56 14 -45 10 6 24 22 30 36 17 39 52 62 80 51 16 -6
34 -5 54 4 32 13 44 32 44 68 0 18 2 19 10 7 16 -24 11 -59 -10 -80 l-20 -20
30 0 c17 0 44 -7 60 -15 34 -17 38 -10 14 23 -15 22 -14 25 8 57 12 19 26 35
30 35 12 0 30 -71 26 -106 -2 -19 -3 -34 -1 -34 1 0 13 19 26 42 32 56 51 139
43 189 -5 32 -2 47 14 69 19 27 22 28 48 14 32 -16 61 -18 96 -4 14 5 26 8 26
6 0 -15 -44 -103 -66 -132 l-27 -35 29 7 c16 3 40 13 52 21 13 8 26 12 30 8 3
-3 1 -46 -5 -95 -20 -159 -91 -273 -211 -338 -51 -28 -52 -29 -28 -40 25 -11
82 -79 74 -87 -3 -3 -24 2 -48 10 -47 17 -106 19 -162 6 -43 -10 -48 -3 -18
24 30 27 18 29 -28 6 -52 -27 -74 -60 -101 -151 -12 -41 -28 -88 -36 -105 -39
-76 -169 -108 -254 -63 -61 31 -76 57 -106 171 -35 137 -43 147 -125 162 l-35
6 38 -21 c20 -11 37 -22 37 -24 0 -2 -39 -3 -87 -3 -63 1 -99 -4 -127 -16 -45
-20 -51 -17 -42 16 6 24 31 53 69 80 16 11 12 16 -41 54 -90 66 -154 160 -186
273 -15 55 -24 155 -15 165 3 2 30 -20 59 -50 30 -30 58 -55 62 -55 4 0 -10
24 -32 53 -47 60 -95 177 -75 177 3 0 17 -7 31 -16 16 -11 36 -15 58 -11 30 5
37 1 63 -31 24 -30 31 -50 36 -105 4 -43 15 -83 29 -109 l23 -41 6 52 c11 86
15 89 53 45 30 -35 32 -40 20 -63 -16 -30 -12 -36 14 -22 12 6 35 11 53 11 26
0 30 3 21 12 -7 7 -12 26 -12 43 l1 30 15 -27 c25 -46 81 -62 124 -36 15 10
22 9 39 -6 10 -9 22 -30 26 -44 6 -26 32 -62 44 -62 3 0 4 26 2 57 -5 82 -41
125 -118 141 -31 6 -74 24 -95 38 -37 26 -39 26 -57 9 -11 -9 -24 -14 -30 -11
-28 18 -36 132 -14 195 4 9 -7 4 -25 -13 -18 -16 -34 -38 -38 -48 -9 -30 -23
-20 -15 10 12 42 36 84 65 115 24 25 13 40 -11 16 -9 -9 -21 -4 -48 20 -36 31
-36 31 -10 31 l26 0 -21 30 c-18 25 -19 30 -5 30 8 0 27 -7 40 -16 45 -29 26
3 -40 73 -59 61 -67 66 -76 50 -6 -11 -9 -53 -8 -96 3 -62 10 -89 36 -140 30
-62 31 -65 15 -97 -13 -28 -18 -31 -30 -21 -19 15 -42 69 -42 98 0 11 -9 32
-20 46 -16 21 -20 40 -19 97 0 39 6 96 12 126 11 50 14 55 37 52 78 -10 227
-107 282 -184 18 -27 19 -30 4 -41 -13 -10 -5 -12 44 -12 33 -1 60 2 60 5 0 3
-16 25 -35 49 -43 54 -35 62 57 60 64 -1 81 -1 227 1 46 1 88 -3 93 -8 6 -6
-4 -31 -26 -65 -20 -31 -36 -57 -36 -59 0 -2 36 -3 80 -3 44 0 80 1 80 3 0 2
-16 10 -36 18 l-35 15 31 39 c52 65 131 129 205 165 39 19 73 35 77 35 3 0 12
-24 19 -52z"/>
<path d="M568 709 c-24 -17 -28 -28 -28 -67 0 -28 8 -59 19 -78 22 -36 83 -68
112 -59 19 6 16 10 -22 28 l-44 20 33 6 34 6 -34 20 -33 20 29 3 28 4 -28 29
c-20 21 -25 32 -17 40 15 15 77 4 93 -16 15 -18 41 -125 34 -136 -2 -4 15 -17
40 -27 55 -25 77 -59 50 -79 -38 -28 -120 -10 -148 32 -12 18 -27 23 -78 28
-36 3 -95 18 -138 36 -41 16 -66 23 -55 15 33 -27 117 -63 172 -75 36 -8 55
-18 59 -31 3 -10 16 -25 29 -34 18 -11 28 -36 45 -107 13 -51 27 -99 31 -108
21 -42 136 -63 207 -38 39 13 52 35 87 138 15 46 36 91 48 100 11 9 32 27 46
41 15 14 47 31 72 38 54 16 151 54 147 58 -2 1 -39 -6 -83 -17 -44 -10 -94
-19 -111 -19 -19 0 -34 -6 -38 -15 -9 -23 -68 -55 -102 -55 -18 0 -42 8 -55
19 -21 17 -22 21 -9 36 8 10 35 27 60 38 25 11 40 22 33 24 -14 5 -6 66 14
106 15 30 75 62 99 53 24 -9 16 -36 -16 -54 -37 -21 -39 -35 -2 -26 24 7 26 6
14 -9 -8 -9 -22 -19 -33 -22 -28 -9 -23 -25 9 -26 26 -1 25 -1 -12 -19 -35
-16 -37 -18 -17 -25 32 -10 87 12 116 46 19 23 25 42 25 77 0 26 -7 55 -14 65
-22 29 -68 40 -116 27 -33 -9 -45 -9 -50 0 -10 16 -36 2 -75 -40 l-30 -32 32
16 c41 20 50 7 28 -40 -12 -25 -31 -42 -71 -61 -50 -25 -57 -26 -91 -14 -60
21 -80 38 -93 76 -13 41 -8 54 15 35 32 -27 13 9 -20 39 -38 33 -50 37 -60 21
-4 -7 -12 -7 -25 0 -30 16 -83 11 -112 -11z"/>
</g>
</svg>
